<svg width="107" height="105" viewBox="0 0 107 105" fill="none" xmlns="http://www.w3.org/2000/svg">
<path d="M97.972 101.226C97.972 97.04 97.4247 92.8865 97.2112 88.7111C97.136 88.2875 97.011 87.8742 96.839 87.4799C96.8073 86.7855 96.7397 86.0932 96.6365 85.4059C95.914 81.7394 95.1915 78.073 94.4034 74.423C93.1495 68.9857 92.8348 63.3742 93.4729 57.8309C93.6481 56.4519 93.8451 55.0948 94.0202 53.6994C94.1954 52.3039 93.7904 51.6144 92.5041 51.0125C92.2633 50.903 92.017 50.8209 91.7707 50.7334C86.5382 48.8509 80.8241 48.3037 75.8981 45.6988C73.8893 44.6974 60.6603 29.0412 58.876 27.1368C57.9516 26.2023 56.7771 25.5544 55.4935 25.2708C54.2719 24.9451 52.9906 24.9127 51.7541 25.1761C50.5176 25.4395 49.3609 25.9913 48.3782 26.7866C45.0504 29.3075 41.7244 31.8339 38.4003 34.3657C38.0555 34.6284 37.6888 34.8692 37.3494 35.1428C36.9732 35.3257 36.6505 35.6027 36.4127 35.9468C36.1749 36.291 36.03 36.6908 35.992 37.1073C35.9891 37.6642 36.2068 38.1996 36.5976 38.5965C36.9884 38.9933 37.5204 39.2193 38.0774 39.2251C38.6368 39.1522 39.1643 38.9226 39.599 38.563C39.9168 38.3805 40.2189 38.1718 40.5021 37.9391C42.6914 36.2391 44.9008 34.5463 47.1303 32.8608C48.3782 31.9196 49.6151 30.951 50.9178 30.0919C52.1219 29.2984 53.1619 28.9974 54.1306 29.1944C54.9954 29.364 56.8673 31.1535 56.9822 31.2848C58.6242 33.2713 58.6626 33.2877 56.6101 34.8911C49.6261 40.3634 42.6367 45.8357 35.6418 51.308C34.777 51.9756 33.9341 52.7089 32.9762 53.3437C32.2428 53.8526 31.7174 53.7869 31.1536 53.0755C29.8778 51.536 28.6866 49.9284 27.585 48.2599C25.9923 45.967 22.1117 49.2504 21.4166 49.71C21.0499 49.9454 20.716 50.2244 20.3657 50.4816C14.7866 54.6296 9.21106 58.7795 3.63922 62.9311C2.91871 63.4106 2.24766 63.9606 1.63598 64.5728C-0.000545382 66.4334 -0.465778 68.5731 0.497527 70.8824C0.891191 71.9525 1.59523 72.8808 2.51956 73.5486C3.44389 74.2163 4.54648 74.5932 5.68624 74.6309C7.27048 74.7419 8.83715 74.2426 10.0649 73.2355C12.1448 71.6649 14.252 70.1272 16.3428 68.5731C20.3748 65.5706 24.4141 62.5663 28.4607 59.5602C29.0081 59.1662 30.1465 58.7284 31.991 61.9023C33.3867 64.343 34.985 66.6906 36.0632 69.3228C35.9373 69.5854 28.718 72.6061 25.1713 73.52C22.5605 74.2095 19.9497 74.8936 17.3444 75.5995C15.1445 76.1377 12.9876 76.8382 10.8914 77.6954C5.75192 79.9336 3.46954 83.507 3.54617 89.1872C2.68686 90.4623 2.59381 91.9726 2.29278 93.4009C1.82755 95.6555 2.17784 96.2793 4.22486 97.3738C4.37811 97.4559 4.53684 97.527 4.69557 97.6036C13.7836 102.103 23.7277 104.611 33.8629 104.958C42.4039 105.181 50.9447 104.511 59.3467 102.961C61.1474 102.638 62.9372 102.266 64.7325 101.921C65.2798 101.817 65.7231 101.861 65.9475 102.534C66.7521 104.947 66.774 104.942 69.1878 104.991H94.0202C94.5676 104.991 95.0656 104.991 95.5911 104.991C97.3042 104.893 97.8953 104.296 97.9939 102.572C98.0158 102.102 97.972 101.664 97.972 101.226ZM25.8828 56.3534C20.0118 60.6948 14.148 65.0453 8.29154 69.4049C7.88768 69.7327 7.4554 70.0238 6.99984 70.2749C6.57447 70.5054 6.07777 70.567 5.609 70.4473C5.14022 70.3276 4.73388 70.0354 4.47116 69.6292C4.23469 69.2597 4.13682 68.8184 4.19494 68.3836C4.25305 67.9488 4.46339 67.5487 4.78861 67.2542C5.17554 66.9008 5.58707 66.5753 6.02011 66.2802C11.8109 61.9716 17.6017 57.6668 23.3924 53.3655C24.6021 52.5228 25.226 52.676 25.5435 52.78C25.9005 52.9041 26.2144 53.128 26.448 53.4251C26.6816 53.7222 26.825 54.0801 26.8613 54.4562C26.8976 54.8324 26.8252 55.2111 26.6528 55.5473C26.4803 55.8836 26.215 56.1634 25.8883 56.3534H25.8828ZM80.7365 53.2233C80.7926 53.06 80.8603 52.9009 80.939 52.7472C81.2893 52.0194 81.6724 51.7457 82.3785 51.9646C84.2941 52.5502 86.2098 53.185 88.0817 53.8471C88.498 53.9934 88.8539 54.2738 89.0937 54.6442C89.3334 55.0146 89.4433 55.4541 89.4062 55.8937C89.4539 57.2001 89.3806 58.5081 89.1873 59.801C88.7987 62.1431 89.0012 64.4743 89.1544 66.8274C89.4993 72.1684 90.8621 77.3014 91.9185 82.5055C92.0772 83.2717 92.2359 84.0378 92.3564 84.8148C92.6027 86.4182 92.2195 87.0038 90.6815 87.0475C88.5042 87.0863 86.3311 87.2544 84.1737 87.551C83.566 87.614 82.9534 87.614 82.3456 87.551C81.1579 87.4744 80.8022 87.2172 80.534 86.0625C80.2439 84.793 80.0578 83.496 79.8334 82.2319C79.3408 79.4958 78.9193 76.7596 78.3501 74.0235C77.9847 72.096 77.8287 70.1346 77.8849 68.1736C77.7207 62.8709 79.193 58.0389 80.7365 53.2178V53.2233ZM34.4431 57.8309L34.6073 57.9459L37.1688 55.932C37.5384 56.6468 38.0063 57.3063 38.559 57.8911C39.1607 58.7158 39.8095 59.5052 40.5021 60.2552C40.8151 60.6186 41.2567 60.8466 41.7343 60.8915C42.2119 60.9364 42.6883 60.7946 43.0636 60.4959C43.4528 60.2158 43.7261 59.8029 43.832 59.3352C43.9378 58.8675 43.8689 58.3772 43.6383 57.9568C43.3382 57.4357 43.0017 56.9365 42.6312 56.4629C41.9014 55.4195 41.1716 54.3797 40.4419 53.3437L43.2059 51.1547C44.0926 51.702 44.5359 52.6268 45.1872 53.3765C45.8386 54.1262 46.3695 54.8704 47.0427 55.538C47.316 55.8212 47.6759 56.0051 48.0655 56.0606C48.4552 56.1162 48.8522 56.0401 49.1937 55.8445C49.5718 55.6264 49.8703 55.2932 50.0455 54.8935C50.2208 54.4938 50.2637 54.0485 50.168 53.6227C50.011 53.0356 49.7207 52.4925 49.3196 52.0358C48.4165 50.8483 47.5024 49.6717 46.5829 48.4952L49.4126 46.2734C50.261 46.6729 50.6934 47.5157 51.2626 48.2106C51.9796 49.0698 52.6419 49.9727 53.452 50.7662C53.7283 51.0455 54.0924 51.2213 54.483 51.2642C54.8736 51.307 55.2671 51.2143 55.5975 51.0015C55.9266 50.8091 56.1913 50.5233 56.3579 50.1804C56.5245 49.8375 56.5856 49.4529 56.5334 49.0753C56.4307 48.3921 56.1387 47.7514 55.6905 47.2256C54.8039 45.9725 53.7475 44.8397 53.0086 43.488L56.0299 41.1131C57.0753 42.5413 58.0824 44.0024 59.1935 45.376C60.1239 46.5197 61.5087 46.6674 62.3954 45.8794C63.282 45.0914 63.2328 44.0736 62.3516 42.8314C61.3335 41.4086 60.2553 40.0241 59.1989 38.6286L61.7605 36.6148C62.0396 36.883 62.171 37.0417 62.4775 37.37C64.4479 39.4604 66.4292 41.5399 68.3613 43.6686C69.1166 44.4949 69.0783 44.8999 68.2026 45.6332C66.5606 47.0286 64.82 48.3693 63.1178 49.7319L42.6914 66.0394C42.2864 66.3677 41.8923 66.707 41.4708 67.0189C40.4473 67.7632 40.0861 67.7303 39.4074 66.5866C37.7654 63.6808 36.1234 60.7422 34.4431 57.8309ZM8.37364 85.0666C9.0057 83.9119 9.95538 82.9624 11.1103 82.3304C12.5403 81.486 14.075 80.8329 15.6751 80.3878C18.5267 79.5888 21.3892 78.8282 24.2463 78.0456C27.6124 77.1317 31.0058 76.3054 34.2023 74.8717C35.6144 74.2314 37.1743 73.7772 38.165 72.4584C39.4348 73.1698 40.5896 72.9509 41.6898 72.0534C42.1386 71.6868 42.6038 71.3256 43.069 70.959L47.4477 76.0756C47.6877 76.3515 48.0269 76.5218 48.3916 76.5495C48.7564 76.5771 49.1173 76.46 49.3962 76.2233L49.6972 75.9607C49.8352 75.8426 49.9484 75.6986 50.0305 75.5367C50.1127 75.3748 50.162 75.1983 50.1757 75.0173C50.1894 74.8363 50.1673 74.6544 50.1105 74.4819C50.0538 74.3095 49.9636 74.15 49.845 74.0125L45.5375 69.0054L47.07 67.7577C47.486 67.4403 47.8965 67.1174 48.307 66.7946L52.932 72.1738C53.172 72.4503 53.5117 72.6204 53.8769 72.6471C54.242 72.6738 54.6029 72.5548 54.8805 72.3161L55.1815 72.0534C55.4572 71.8144 55.6273 71.4763 55.655 71.1125C55.6827 70.7487 55.5656 70.3887 55.3293 70.1108L50.8029 64.8519L51.1805 64.5619L54.3605 61.9735C59.469 57.8547 64.5774 53.7395 69.6858 49.628C70.0799 49.3106 74.2725 49.5897 75.8707 50.0056C76.7628 50.2409 77.0256 50.7224 76.8285 51.5652C76.6629 52.2428 76.4619 52.9113 76.2265 53.568C75.0607 56.8566 74.2765 60.2681 73.8894 63.7355C73.4706 67.1132 73.5369 70.5333 74.0864 73.8921C74.787 77.6571 75.462 81.4293 76.1115 85.2089C76.5111 87.5291 76.1115 88.0545 73.7635 88.1092C70.277 88.1967 66.8342 88.7275 63.3641 89.0668C56.0791 89.7782 48.8762 91.0806 41.646 92.1696C39.33 92.5837 36.9864 92.8252 34.6347 92.892C31.1449 92.9044 27.6718 92.4123 24.3229 91.4309C21.3947 90.5827 18.4938 89.6414 15.5656 88.744C13.8141 88.1967 12.0627 87.6495 10.3167 87.1023C9.81696 86.9501 9.32709 86.7673 8.84982 86.555C8.70972 86.5013 8.58348 86.4168 8.48042 86.3078C8.37736 86.1988 8.30013 86.068 8.25441 85.9251C8.2087 85.7822 8.19568 85.6309 8.21632 85.4823C8.23696 85.3337 8.29072 85.1916 8.37364 85.0666ZM92.8599 100.832C92.2578 100.882 91.6448 100.892 91.0373 100.892H73.0355C72.4225 100.892 71.815 100.892 71.2074 100.827C70.9443 100.843 70.6853 100.756 70.4865 100.582C70.2877 100.409 70.1652 100.165 70.1456 99.902C70.1456 99.6393 70.1456 99.3548 70.0744 99.1249C69.7241 97.3519 68.9141 96.7664 67.1243 97.1221C64.4807 97.6693 61.8644 98.3205 59.2154 98.802C50.4081 100.483 41.4367 101.144 32.4782 100.772C23.9453 100.351 15.8557 98.1125 8.07808 94.6431C6.43609 93.9043 6.32662 93.587 6.83016 91.8194C6.88277 91.5661 7.0017 91.3313 7.17479 91.139C7.34788 90.9467 7.56894 90.8038 7.81536 90.7249C14.7391 93.1218 21.7176 95.3053 28.9369 96.6405C32.5548 97.2804 36.2536 97.3174 39.8836 96.7499C45.231 95.9783 50.5675 95.1082 55.8985 94.2217C60.8245 93.4064 65.7505 92.7935 70.6765 92.4323C77.3649 91.9507 84.0697 91.6497 90.7691 91.2831C91.5518 91.2393 92.3344 91.2831 93.1226 91.2831C93.8068 94.1013 93.6699 96.9852 93.8287 99.8473C93.8382 99.9777 93.8198 100.109 93.7748 100.231C93.7297 100.354 93.6589 100.466 93.5672 100.559C93.4756 100.652 93.365 100.725 93.2431 100.772C93.1211 100.819 92.9905 100.84 92.8599 100.832Z" fill="#73A9AB"/>
<path d="M33.7376 42.4128C33.7376 41.9994 33.615 41.5952 33.3852 41.2514C33.1555 40.9077 32.8289 40.6397 32.4469 40.4815C32.0648 40.3233 31.6444 40.2819 31.2389 40.3626C30.8333 40.4432 30.4607 40.6423 30.1683 40.9347C29.8759 41.227 29.6768 41.5995 29.5961 42.005C29.5155 42.4105 29.5569 42.8308 29.7151 43.2128C29.8734 43.5947 30.1413 43.9212 30.4852 44.1509C30.829 44.3806 31.2332 44.5032 31.6468 44.5032C32.2013 44.5032 32.7331 44.283 33.1252 43.891C33.5173 43.4989 33.7376 42.9672 33.7376 42.4128Z" fill="#73A9AB"/>
<path d="M88.9776 15.0054C89.5342 14.2126 90.7802 14.5953 90.7958 15.5639L90.9222 23.3833C90.9292 23.8165 91.2144 24.1959 91.6285 24.3231L99.1043 26.6192C100.03 26.9037 100.051 28.2069 99.135 28.5211L91.7373 31.0576C91.3275 31.1981 91.0548 31.5866 91.0618 32.0197L91.1882 39.8392C91.2038 40.8078 89.9709 41.2305 89.3889 40.4561L84.6905 34.2043C84.4302 33.858 83.9766 33.7187 83.5668 33.8592L76.1691 36.3957C75.2527 36.7099 74.4697 35.6679 75.0263 34.8751L79.5202 28.4748C79.7692 28.1202 79.7615 27.6457 79.5012 27.2994L74.8028 21.0476C74.2209 20.2732 74.9698 19.2065 75.8959 19.4909L83.3716 21.787C83.7858 21.9142 84.2347 21.7603 84.4837 21.4058L88.9776 15.0054Z" fill="#73A9AB"/>
<path d="M75.6629 0.454828C76.2196 -0.337985 77.4655 0.0447062 77.4812 1.0133L77.5371 4.47405C77.5441 4.90722 77.8293 5.28662 78.2434 5.41382L81.552 6.43005C82.4781 6.71448 82.4991 8.01771 81.5828 8.33191L78.3087 9.45454C77.8989 9.59506 77.6262 9.98347 77.6332 10.4166L77.6891 13.8774C77.7048 14.846 76.4718 15.2687 75.8898 14.4943L73.8104 11.7274C73.5501 11.3811 73.0964 11.2417 72.6866 11.3822L69.4126 12.5049C68.4962 12.8191 67.7131 11.7771 68.2698 10.9843L70.2587 8.15162C70.5077 7.79706 70.5 7.32253 70.2397 6.9762L68.1603 4.20927C67.5783 3.43486 68.3273 2.36814 69.2533 2.65257L72.562 3.6688C72.9761 3.796 73.425 3.64207 73.674 3.28751L75.6629 0.454828Z" fill="#73A9AB"/>
<path d="M102.429 8.67593C102.985 7.88312 104.231 8.26581 104.247 9.23441L104.268 10.5158C104.275 10.949 104.56 11.3284 104.974 11.4556L106.199 11.8319C107.125 12.1163 107.146 13.4195 106.23 13.7337L105.018 14.1494C104.608 14.2899 104.335 14.6783 104.342 15.1115L104.363 16.3929C104.378 17.3615 103.145 17.7843 102.563 17.0098L101.794 15.9853C101.533 15.639 101.08 15.4997 100.67 15.6402L99.4575 16.0559C98.5411 16.3701 97.7581 15.3281 98.3147 14.5353L99.0512 13.4864C99.3001 13.1319 99.2925 12.6573 99.0322 12.311L98.2622 11.2865C97.6802 10.5121 98.4292 9.44537 99.3553 9.7298L100.58 10.1061C100.994 10.2333 101.443 10.0793 101.692 9.72479L102.429 8.67593Z" fill="#73A9AB"/>
</svg>
