<svg width="24" height="24" viewBox="0 0 24 24" fill="none" xmlns="http://www.w3.org/2000/svg">
<path fill-rule="evenodd" clip-rule="evenodd" d="M12.3509 5.72193C11.0994 5.71603 9.87438 6.08184 8.83099 6.773C7.78756 7.46415 6.97275 8.44955 6.48978 9.60434C6.00677 10.7591 5.87734 12.0313 6.11787 13.2598C6.35843 14.4882 6.95808 15.6176 7.84091 16.5048C8.72374 17.392 9.84999 17.9971 11.077 18.2435C12.304 18.4899 13.5764 18.3664 14.7332 17.8888C15.89 17.4111 16.879 16.6008 17.5749 15.5604C18.2707 14.52 18.6422 13.2964 18.6422 12.0446C18.6438 10.3724 17.9825 8.76777 16.8031 7.58255C15.6237 6.39734 14.0227 5.72823 12.3509 5.72193ZM12.3509 15.8335C11.5979 15.8335 10.8619 15.61 10.2359 15.1915C9.6099 14.7729 9.1221 14.1781 8.83425 13.4821C8.54636 12.7862 8.47134 12.0205 8.6187 11.2819C8.76602 10.5433 9.12907 9.86506 9.66191 9.33292C10.1947 8.80079 10.8734 8.4387 11.612 8.29248C12.3507 8.14627 13.1161 8.22251 13.8114 8.51154C14.5067 8.80057 15.1007 9.28941 15.5181 9.91621C15.9356 10.543 16.1578 11.2796 16.1566 12.0327C16.1582 12.5333 16.0608 13.0293 15.8702 13.4922C15.6796 13.9551 15.3994 14.3758 15.0458 14.73C14.6922 15.0843 14.272 15.3652 13.8096 15.5566C13.3471 15.748 12.8514 15.8461 12.3509 15.8453V15.8335Z" fill="white"/>
<path d="M17.3118 4.28842C17.5751 4.11124 17.8849 4.01605 18.2022 4.01489C18.4136 4.01409 18.623 4.05506 18.8185 4.13541C19.0139 4.21577 19.1916 4.33394 19.3414 4.48315C19.4911 4.63235 19.6099 4.80964 19.6909 5.00488C19.772 5.20012 19.8137 5.40943 19.8137 5.62082C19.8137 5.93821 19.7197 6.24846 19.5435 6.51242C19.3674 6.7764 19.117 6.98222 18.8239 7.10395C18.5309 7.22567 18.2084 7.25782 17.8971 7.19634C17.5858 7.13486 17.2998 6.98249 17.075 6.75848C16.8502 6.53449 16.6968 6.24889 16.6342 5.93777C16.5716 5.62663 16.6025 5.30391 16.7231 5.01036C16.8437 4.71681 17.0486 4.46559 17.3118 4.28842Z" fill="white"/>
<path fill-rule="evenodd" clip-rule="evenodd" d="M16.6026 0H7.39743C5.43655 0 3.55588 0.778745 2.16874 2.16508C0.781637 3.55144 0.00156066 5.43194 0 7.3933V16.6126C0.000798478 17.5835 0.192724 18.5448 0.564923 19.4415C0.937087 20.3382 1.48219 21.1528 2.1691 21.8387C2.85605 22.5247 3.67129 23.0687 4.56838 23.4395C5.46544 23.8103 6.42677 24.0008 7.39743 24H16.6026C17.5732 24.0008 18.5346 23.8103 19.4316 23.4395C20.3287 23.0687 21.144 22.5247 21.8309 21.8387C22.5178 21.1528 23.0629 20.3382 23.4351 19.4415C23.8073 18.5448 23.9992 17.5835 24 16.6126V7.3933C23.9984 5.43194 23.2184 3.55144 21.8313 2.16508C20.4441 0.778745 18.5635 0 16.6026 0ZM21.6928 15.7204C21.6928 17.2979 21.0663 18.8108 19.9511 19.9263C18.8359 21.0417 17.3234 21.6684 15.7463 21.6684H8.2775C6.70039 21.6684 5.18789 21.0417 4.07271 19.9263C2.95753 18.8108 2.33101 17.2979 2.33101 15.7204V8.2855C2.33101 6.708 2.95753 5.19511 4.07271 4.07967C5.18789 2.96421 6.70039 2.33754 8.2775 2.33754H15.7225C17.2996 2.33754 18.8121 2.96421 19.9273 4.07967C21.0425 5.19511 21.669 6.708 21.669 8.2855L21.6928 15.7204Z" fill="white"/>
</svg>
