<svg width="39" height="22" viewBox="0 0 39 22" fill="none" xmlns="http://www.w3.org/2000/svg">
<path d="M38.7933 19.8684C38.7461 19.7678 38.7021 19.6842 38.6611 19.6173C37.9843 18.4125 36.6914 16.9336 34.7827 15.1802L34.7424 15.14L34.7221 15.1204L34.7017 15.1002H34.6812C33.815 14.2837 33.2664 13.7347 33.0366 13.4537C32.6163 12.9183 32.5222 12.3763 32.752 11.8272C32.9142 11.4123 33.5239 10.5362 34.5794 9.19753C35.1346 8.48806 35.5743 7.91949 35.8992 7.49111C38.2414 4.41257 39.2568 2.44535 38.9451 1.58868L38.8243 1.38847C38.743 1.26796 38.5331 1.15769 38.1949 1.05714C37.8563 0.956794 37.4232 0.940209 36.8951 1.00708L31.0473 1.04702C30.9526 1.01383 30.8171 1.01692 30.6411 1.05714C30.4651 1.09737 30.3769 1.11753 30.3769 1.11753L30.275 1.16782L30.1943 1.22823C30.1267 1.26816 30.0522 1.33841 29.9709 1.43882C29.8898 1.53888 29.8224 1.65633 29.7682 1.79013C29.1316 3.40962 28.4077 4.91535 27.5954 6.30724C27.0945 7.1372 26.6345 7.85649 26.2144 8.46551C25.7947 9.07432 25.4427 9.52287 25.1587 9.81042C24.8741 10.0982 24.6176 10.3288 24.3868 10.503C24.1568 10.6772 23.981 10.7509 23.8591 10.7239C23.7373 10.697 23.6225 10.6703 23.5137 10.6436C23.3243 10.523 23.172 10.3591 23.0572 10.1517C22.9416 9.94424 22.8641 9.68314 22.8235 9.3686C22.783 9.05385 22.7592 8.78314 22.7524 8.55551C22.746 8.32819 22.7489 8.00661 22.7627 7.59174C22.7768 7.17665 22.783 6.89579 22.783 6.74855C22.783 6.23988 22.7931 5.68781 22.8132 5.0922C22.8337 4.4966 22.8502 4.02472 22.8641 3.67705C22.8779 3.32903 22.8843 2.96087 22.8843 2.57271C22.8843 2.18455 22.8603 1.88013 22.8132 1.65921C22.7666 1.43853 22.6951 1.22436 22.6008 1.01671C22.5056 0.809268 22.3666 0.648797 22.1844 0.534891C22.0016 0.421107 21.7745 0.330819 21.5041 0.263737C20.7866 0.1032 19.8728 0.0163575 18.7626 0.0028564C16.2448 -0.0238635 14.627 0.136883 13.9095 0.484891C13.6253 0.631926 13.368 0.832826 13.138 1.08696C12.8943 1.38152 12.8603 1.54226 13.0363 1.5687C13.8486 1.68903 14.4237 1.97684 14.7622 2.43185L14.8841 2.67299C14.979 2.84694 15.0737 3.15494 15.1685 3.59654C15.2632 4.03813 15.3243 4.52664 15.3512 5.06175C15.4187 6.03896 15.4187 6.87548 15.3512 7.57133C15.2834 8.26749 15.2194 8.80943 15.1583 9.1976C15.0972 9.58576 15.0059 9.90028 14.8841 10.1411C14.7622 10.382 14.681 10.5293 14.6403 10.5827C14.5997 10.6362 14.5659 10.6698 14.539 10.6831C14.363 10.7497 14.18 10.7837 13.9906 10.7837C13.801 10.7837 13.571 10.6899 13.3002 10.5024C13.0296 10.3149 12.7488 10.0575 12.4577 9.72948C12.1666 9.40146 11.8383 8.94303 11.4727 8.3542C11.1073 7.76534 10.7282 7.06941 10.3356 6.26638L10.0108 5.68401C9.80777 5.30934 9.53041 4.76382 9.17841 4.04791C8.82624 3.33171 8.51493 2.63895 8.2443 1.96972C8.13613 1.68866 7.97362 1.47469 7.75706 1.32745L7.65545 1.26704C7.58787 1.2136 7.47941 1.15686 7.33063 1.09636C7.18163 1.03598 7.02615 0.992663 6.86356 0.965996L1.29981 1.00593C0.731262 1.00593 0.345514 1.1333 0.142385 1.38763L0.061095 1.50794C0.0204849 1.57496 0 1.68199 0 1.82929C0 1.97655 0.040612 2.15727 0.121902 2.37124C0.934105 4.25858 1.81737 6.07877 2.77167 7.83207C3.72597 9.58541 4.55525 10.9977 5.25899 12.0678C5.96287 13.1387 6.68036 14.1494 7.41142 15.0994C8.14246 16.0497 8.62637 16.6588 8.86316 16.9263C9.10019 17.1944 9.28638 17.3948 9.42171 17.5286L9.92945 18.0103C10.2544 18.3316 10.7314 18.7164 11.3609 19.1647C11.9905 19.6132 12.6876 20.0547 13.4525 20.4901C14.2174 20.9249 15.1074 21.2795 16.1228 21.5539C17.138 21.8283 18.1262 21.9386 19.0875 21.8854H21.4226C21.8961 21.8449 22.2549 21.6979 22.4988 21.4437L22.5797 21.3431C22.6341 21.2631 22.6849 21.1392 22.7317 20.9719C22.7793 20.8048 22.8028 20.6206 22.8028 20.42C22.789 19.8445 22.8332 19.3259 22.9346 18.8643C23.0359 18.4027 23.1511 18.0547 23.2802 17.8203C23.4091 17.5861 23.5547 17.3885 23.7166 17.2283C23.8788 17.0678 23.9944 16.9706 24.0625 16.9371C24.1299 16.9034 24.1837 16.8806 24.2242 16.8668C24.5491 16.7598 24.9316 16.8635 25.3717 17.1783C25.8119 17.4928 26.2247 17.8812 26.6107 18.3428C26.9966 18.8048 27.4601 19.3232 28.0014 19.8985C28.5433 20.4742 29.017 20.902 29.4228 21.1834L29.8286 21.4245C30.1 21.585 30.452 21.7324 30.8851 21.8662C31.3178 21.9999 31.6966 22.0335 32.0219 21.9666L37.2199 21.8864C37.7343 21.8864 38.1341 21.8022 38.4179 21.6351C38.7023 21.4678 38.8713 21.2836 38.9256 21.0832C38.98 20.8825 38.9829 20.6547 38.936 20.4001C38.8878 20.1461 38.8404 19.9686 38.7933 19.8684Z" fill="white"/>
</svg>
