<svg width="92" height="92" viewBox="0 0 92 92" fill="none" xmlns="http://www.w3.org/2000/svg">
<path d="M0.906741 14.0754C1.18727 14.2577 1.48857 14.4058 1.80422 14.5165C2.32907 14.2749 2.85391 14.0649 3.37876 13.7814C6.43335 12.1063 8.84763 12.4056 11.2882 14.8315C16.1482 19.6764 20.9943 24.5283 25.8263 29.3872C26.2563 29.7857 26.6579 30.2139 27.0282 30.6684C27.5371 31.2905 27.812 32.0713 27.8053 32.8752C27.7986 33.679 27.5106 34.4551 26.9915 35.0687C26.4982 35.6368 25.9593 36.1637 25.3802 36.644C20.0478 41.3348 14.7101 46.0222 9.36723 50.706C6.85847 52.9061 4.31823 55.0695 1.78848 57.2487C1.37385 57.6635 0.922486 58.0416 0.549846 58.4879C0.203963 58.839 0.0070317 59.3102 0.000184686 59.8031C-0.00666233 60.296 0.177105 60.7725 0.513103 61.133C0.849101 61.4936 1.31134 61.7103 1.80329 61.738C2.29523 61.7656 2.77883 61.602 3.15307 61.2814C3.68644 60.8802 4.19802 60.4507 4.68562 59.9949L27.1017 40.3249C27.8522 39.6633 28.629 39.0226 29.3376 38.3138C30.3243 37.3965 31.0416 36.2267 31.4116 34.9309C31.7817 33.6352 31.7904 32.2628 31.4369 30.9624C31.3215 30.4794 31.1325 30.0068 30.9751 29.5342C30.8982 29.3366 30.8812 29.1207 30.9259 28.9135C30.9707 28.7062 31.0754 28.5167 31.227 28.3685C31.4527 28.1217 31.6889 27.8854 31.9145 27.6386C34.3708 24.9449 34.5073 22.6239 32.4026 19.5469C32.5811 18.6595 33.3054 18.1711 33.8827 17.5883C36.2865 15.1624 38.6745 12.7207 41.1256 10.3472C42.3852 9.12902 42.4954 7.81103 41.0941 6.49304C39.4513 4.95977 37.8978 3.34248 36.3127 1.73569C35.7024 1.10511 34.9549 0.623995 34.1283 0.329814C33.3017 0.0356327 32.4184 -0.0636721 31.5471 0.0396338C30.1266 0.171498 28.8023 0.815303 27.8208 1.85121C26.0573 3.62603 24.2886 5.38509 22.5146 7.14941C22.0475 7.61675 21.6013 8.14184 20.8298 8.04207C18.7619 6.37227 16.5576 6.38277 14.285 7.51698C13.7688 7.77912 13.3061 8.13527 12.9204 8.56717C12.1227 9.48608 11.3039 9.81164 10.081 9.3233C8.41201 8.65643 6.62754 8.76145 4.88506 9.00825C3.30141 9.19465 1.8245 9.90205 0.686306 11.0194C-0.300401 12.038 -0.195432 13.188 0.906741 14.0754ZM24.7977 10.3997C26.6818 8.50941 28.587 6.65057 30.445 4.73923C30.6637 4.48896 30.9349 4.28998 31.2392 4.15644C31.5436 4.02291 31.8736 3.9581 32.2058 3.96662C32.538 3.97514 32.8642 4.05679 33.1613 4.20575C33.4584 4.35471 33.719 4.56733 33.9247 4.82849C34.5125 5.52687 35.2368 6.10447 35.8509 6.78185C36.3337 7.30694 37.2784 7.73227 37.079 8.49365C36.8323 9.45458 35.9138 10.0689 35.0951 10.6255C34.9846 10.6671 34.866 10.6826 34.7486 10.6707C34.6311 10.6589 34.518 10.6201 34.418 10.5573C34.0087 10.2842 33.678 9.88515 33.2686 9.61211C32.8999 9.33316 32.4403 9.20221 31.98 9.24495C31.5197 9.2877 31.092 9.50106 30.7809 9.84315C30.4764 10.1878 30.301 10.6276 30.2847 11.0874C30.2684 11.5471 30.4123 11.9982 30.6917 12.3636C31.0223 12.8362 31.4369 13.2458 31.8411 13.7183C31.3763 14.6124 30.6895 15.3719 29.8467 15.9237C29.6315 16.0865 29.2221 15.992 28.9019 16.0183L24.3935 11.5129C24.3775 11.3069 24.4052 11.0998 24.4748 10.9052C24.5445 10.7106 24.6545 10.533 24.7977 10.384V10.3997ZM15.0041 12.1903C15.4064 11.5505 15.9941 11.0486 16.6888 10.7516C16.9219 10.654 17.1766 10.6196 17.4272 10.6519C17.6778 10.6842 17.9155 10.7819 18.1164 10.9353C18.5178 11.2343 18.8951 11.5644 19.2448 11.9225C22.3939 15.0451 25.5237 18.1764 28.6343 21.3165C30.3662 23.0703 30.3348 23.7319 28.5293 25.4174C28.3943 25.5095 28.2478 25.5837 28.0937 25.638C27.6075 25.5004 27.1822 25.2025 26.8865 24.7926C23.1671 21.0749 19.4547 17.352 15.7493 13.6238C15.5131 13.3867 15.2889 13.1378 15.0775 12.8782C14.9841 12.7919 14.9251 12.6746 14.9116 12.5481C14.8981 12.4215 14.9309 12.2944 15.0041 12.1903Z" fill="#73A9AB"/>
<path d="M91.983 89.2794C91.787 85.8558 91.5823 82.4357 91.3689 79.0191C91.3012 78.6066 91.1922 78.202 91.0435 77.8114C91.1604 76.7282 91.0948 75.633 90.8493 74.5715C90.167 71.0481 89.5529 67.5038 88.7499 64.0066C87.5165 58.7084 87.097 53.2531 87.506 47.8285C87.6215 46.332 87.8524 44.8407 88.0309 43.3494C88.2723 41.1755 88.0309 40.7239 85.9997 39.9626C82.0949 38.4888 78.1341 37.1743 74.1173 36.0191C71.2254 35.1895 68.3072 34.4963 65.3576 33.9187C63.7148 33.5984 62.5602 33.9187 61.9199 35.536C62.0316 36.1163 62.3292 36.6444 62.7677 37.0404C63.2061 37.4365 63.7615 37.6788 64.3499 37.7309C65.0899 37.8622 65.8247 38.025 66.5595 38.2035C67.9398 38.5343 69.3254 38.8494 70.69 39.2537C71.6295 39.5215 71.8289 39.9783 71.6085 40.976C71.5342 41.3031 71.4413 41.6257 71.3303 41.9422C70.0844 45.4909 69.2222 49.163 68.7586 52.8956C68.3701 55.46 68.3807 58.0691 68.7901 60.6303C69.3009 63.4308 69.7978 66.2313 70.2806 69.0318C70.5116 70.3498 70.7688 71.6573 70.9105 72.991C71.1466 75.1911 70.69 75.6952 68.5277 75.795C67.4412 75.8475 66.3496 75.795 65.2736 75.9368C62.8646 76.1836 60.4661 76.5301 58.0623 76.7664C52.6564 77.2915 47.3082 78.2367 41.9496 79.0558C39.2256 79.4759 36.5122 80.022 33.7725 80.2636C30.0255 80.5908 26.2502 80.2657 22.6143 79.3026C17.5915 77.9899 12.6737 76.3621 7.76121 74.7291C7.36332 74.5989 6.97708 74.4356 6.60655 74.2407C6.47344 74.1784 6.3545 74.0895 6.25707 73.9794C6.15964 73.8693 6.08578 73.7405 6.04004 73.6007C5.99431 73.461 5.97767 73.3134 5.99116 73.167C6.00464 73.0206 6.04796 72.8785 6.11844 72.7495C6.64353 71.6029 7.55086 70.6747 8.68493 70.124C10.607 69.1055 12.6487 68.3311 14.7626 67.8188C16.7046 67.2937 18.6622 66.8579 20.5936 66.3223C24.6192 65.2143 28.6815 64.2219 32.4289 62.2686C34.6542 61.1134 36.9111 60.0317 38.937 58.5141C39.6822 57.9576 39.9604 58.0258 40.6532 58.7242C41.6556 59.7271 42.6371 60.7615 43.6448 61.7592C44.0492 62.1804 44.4959 62.5588 44.9779 62.8882C45.3602 63.1017 45.805 63.175 46.2355 63.0953C46.6661 63.0156 47.0553 62.788 47.3359 62.4518C47.6166 62.1156 47.7711 61.6919 47.7727 61.2539C47.7744 60.8158 47.6231 60.391 47.345 60.0527C46.479 59.0392 45.5238 58.0941 44.5685 57.1594C42.9625 55.5841 42.8733 55.2008 45.0461 53.8198C45.7809 53.3525 46.4842 53.5573 47.2085 53.7725C49.1347 54.3396 51.0504 54.9435 52.9818 55.4581C53.4252 55.6051 53.9087 55.5713 54.3273 55.3638C54.7459 55.1564 55.0658 54.7921 55.2176 54.3502C55.3231 54.1212 55.3813 53.8734 55.3888 53.6214C55.3963 53.3695 55.353 53.1186 55.2614 52.8838C55.1697 52.649 55.0317 52.4351 54.8556 52.2549C54.6794 52.0747 54.4688 51.9318 54.2362 51.8349C53.6161 51.5882 52.9816 51.3795 52.3362 51.2101C51.6224 50.9843 50.8929 50.7953 50.1844 50.5327C49.4758 50.2702 49.2921 49.7556 49.7277 49.1727C50.3733 48.3063 51.0871 47.4819 51.7589 46.626C52.3564 45.9293 52.9103 45.1962 53.4174 44.4311C54.2677 43.0081 53.7795 41.9947 52.1788 41.7321C51.7588 41.6852 51.3365 41.6624 50.9139 41.6639C49.6438 43.0869 48.3632 44.5046 47.0983 45.9329C40.0601 53.8776 31.6416 59.5853 21.1972 62.0375C17.875 62.8199 14.5947 63.7913 11.3092 64.7208C9.61256 65.1665 7.98836 65.8525 6.48583 66.7581C3.9141 68.3754 2.10339 70.5336 1.68876 73.6841C1.2164 75.8738 0.702051 78.0529 0.276927 80.2531C-0.30565 83.2303 -0.116706 83.6452 2.61773 84.9474C11.7293 89.4094 21.7134 91.8031 31.8568 91.9574C40.9691 92.0282 50.0632 91.1305 58.986 89.2794C59.4741 89.1797 59.9622 89.0589 60.4556 88.9959C60.6249 88.9694 60.7978 89.0092 60.9385 89.107C61.0793 89.2048 61.177 89.353 61.2113 89.521C61.2848 89.7573 61.2743 90.0198 61.3478 90.2561C61.7624 91.5898 62.1246 91.8944 63.4472 91.9837C63.9458 92.0204 64.4496 91.9837 64.9482 91.9837H88.2618C88.9346 92.0002 89.6078 91.9738 90.2772 91.9049C90.6978 91.8687 91.0933 91.6896 91.3979 91.3972C91.7025 91.1049 91.8979 90.717 91.9515 90.2981C92.0029 89.9611 92.0135 89.619 91.983 89.2794ZM73.2618 49.7923C73.7903 47.1745 74.5292 44.6037 75.4714 42.1049C75.8492 41.1388 76.2481 40.892 77.2033 41.1808C79.1138 41.7689 81.0085 42.4148 82.8822 43.0974C83.6957 43.3967 83.9004 43.7747 83.7534 44.6727C83.428 46.668 83.6064 48.6686 83.5592 50.664C83.0658 56.1512 84.1418 61.4652 85.3122 66.7686C85.6376 68.2336 85.9473 69.7039 86.2517 71.1742C86.3708 71.6589 86.4515 72.1523 86.4931 72.6497C86.5876 74.1305 86.1467 74.7186 84.7191 74.7501C82.6345 74.7823 80.5539 74.9436 78.4892 75.2332C77.9927 75.2918 77.4916 75.3006 76.9934 75.2594C75.5763 75.1911 75.2667 74.9076 75.0305 73.5213C74.7103 71.631 74.4112 69.7354 74.0805 67.8503C73.7971 66.2068 73.5557 64.5527 73.1725 62.9302C72.2186 58.5995 72.249 54.1097 73.2618 49.7923ZM86.8605 87.9824C86.3356 88.035 85.858 88.0402 85.3594 88.0454H67.8034C67.2179 88.0471 66.6327 88.0173 66.0504 87.9562C65.8399 87.9394 65.6417 87.8502 65.4896 87.7038C65.3374 87.5573 65.2407 87.3626 65.2159 87.1528C65.1675 86.6555 65.0922 86.1612 64.9902 85.672C64.8961 85.2583 64.6531 84.8937 64.3076 84.6477C63.962 84.4017 63.538 84.2916 63.1165 84.3383C62.536 84.3931 61.9616 84.5003 61.4003 84.6586C52.6876 86.7064 43.7855 87.8415 34.8379 88.0454C25.3614 88.2612 15.9484 86.4458 7.23111 82.721C6.84273 82.5635 6.45959 82.3884 6.0817 82.1959C3.79338 81.1457 3.67792 80.5366 5.28919 78.2314C10.0915 79.9327 14.9988 81.2875 19.8851 82.7C26.336 84.5321 33.1244 84.8377 39.7137 83.5927C44.7242 82.707 49.7487 81.8931 54.7872 81.151C58.1672 80.6574 61.5682 80.2321 64.9745 79.9538C71.8709 79.3867 78.7831 78.9561 85.7111 78.7618C86.2884 78.7618 86.871 78.8248 87.4535 78.8563C87.6005 80.6889 87.758 82.532 87.8839 84.3593C87.9417 85.1942 87.9679 86.0291 87.9522 86.864C87.9364 87.5991 87.6058 87.9089 86.8605 87.9824Z" fill="#73A9AB"/>
<path d="M41.2988 19.5521C40.9751 19.3147 40.5826 19.1898 40.1813 19.1966C39.78 19.2034 39.392 19.3415 39.0765 19.5898C38.7611 19.8381 38.5356 20.1829 38.4346 20.5715C38.3336 20.9602 38.3625 21.3712 38.5171 21.7418C38.8761 22.6843 39.5062 23.4992 40.3278 24.0837C40.6257 24.3223 40.9959 24.4523 41.3775 24.4523C41.7591 24.4523 42.1293 24.3223 42.4272 24.0837C42.7853 23.8606 43.052 23.5168 43.179 23.1143C43.306 22.7119 43.2851 22.2772 43.12 21.8888C42.7282 20.9636 42.1001 20.1578 41.2988 19.5521Z" fill="#73A9AB"/>
<path d="M47.5392 20.1402C47.8287 20.1473 48.1154 20.0829 48.3742 19.9528C48.6329 19.8227 48.8557 19.6308 49.0227 19.3942C49.1897 19.1575 49.296 18.8833 49.332 18.5958C49.368 18.3083 49.3327 18.0164 49.2291 17.7458C48.8355 16.6956 47.0668 15.4669 45.9331 15.4722C45.6414 15.4588 45.3511 15.519 45.0887 15.6472C44.8264 15.7755 44.6004 15.9676 44.4316 16.206C44.2628 16.4444 44.1567 16.7214 44.1228 17.0115C44.0889 17.3017 44.1285 17.5957 44.2379 17.8666C44.663 18.9168 46.4422 20.1455 47.5392 20.1402Z" fill="#73A9AB"/>
<path d="M45.8701 30.5581C46.118 30.5745 46.3666 30.5403 46.6009 30.4576C46.8351 30.3748 47.0501 30.2453 47.2327 30.0768C47.4154 29.9083 47.5618 29.7045 47.6632 29.4776C47.7646 29.2507 47.8188 29.0056 47.8226 28.757C47.8239 28.5088 47.7764 28.2627 47.6828 28.0328C47.5891 27.803 47.4511 27.5938 47.2766 27.4173C47.1021 27.2408 46.8946 27.1004 46.6659 27.0041C46.4372 26.9078 46.1917 26.8576 45.9436 26.8562C45.4406 26.8713 44.9638 27.0844 44.6169 27.4492C44.2701 27.8139 44.081 28.3009 44.0909 28.8043C44.1223 29.2636 44.3206 29.6955 44.6483 30.0185C44.9761 30.3416 45.4107 30.5335 45.8701 30.5581Z" fill="#73A9AB"/>
<path d="M53.6378 24.8241C53.8881 24.8161 54.1342 24.758 54.3617 24.6533C54.5891 24.5485 54.7933 24.3992 54.9621 24.2142C55.1309 24.0291 55.2609 23.8121 55.3445 23.576C55.428 23.3398 55.4634 23.0893 55.4486 22.8392C55.4411 22.598 55.3851 22.3608 55.2839 22.1418C55.1827 21.9227 55.0385 21.7263 54.8597 21.5642C54.681 21.4022 54.4714 21.2779 54.2436 21.1987C54.0158 21.1194 53.7743 21.087 53.5337 21.1032C53.293 21.1195 53.0581 21.1841 52.8429 21.2932C52.6278 21.4023 52.4368 21.5536 52.2815 21.7382C52.1261 21.9228 52.0095 22.1368 51.9387 22.3675C51.8678 22.5982 51.8442 22.8408 51.8691 23.0808C51.8826 23.5434 52.0741 23.9829 52.4036 24.3077C52.7331 24.6325 53.1753 24.8175 53.6378 24.8241Z" fill="#73A9AB"/>
</svg>
