<svg width="151" height="113" viewBox="0 0 151 113" fill="none" xmlns="http://www.w3.org/2000/svg">
<path d="M99.8748 43.575C98.1498 41.7822 96.3904 40.0644 94.6482 38.3119C93.8432 37.5049 92.9233 36.8708 91.7733 36.94C90.6234 37.0091 89.7034 36.4039 88.9329 35.568C88.4384 35.0319 87.921 34.5131 87.392 34.0058C87.1841 33.824 87.0186 33.5986 86.9073 33.3456C86.796 33.0925 86.7416 32.818 86.748 32.5416C86.84 30.5989 85.7245 29.3134 84.4481 28.0567C80.153 23.7967 75.8981 19.5021 71.6261 15.2247C69.2867 12.8895 66.7449 10.7674 64.0306 8.88366C62.9832 8.14688 61.8241 7.58433 60.5979 7.2177C53.589 5.12515 46.5972 2.97495 39.594 0.876639C39.0707 0.686407 38.5417 0.542292 38.0128 0.398177C37.5731 0.252224 37.0979 0.253719 36.6591 0.402436C36.2204 0.551153 35.8418 0.839011 35.5806 1.22251C35.3066 1.59208 35.165 2.04348 35.1785 2.50374C35.1921 2.96401 35.3601 3.40624 35.6553 3.75894C36.215 4.59581 36.8338 5.39144 37.5068 6.13972C39.3248 8.09384 41.3801 9.81164 43.6246 11.2529C45.5967 12.5845 47.5977 13.8816 49.5181 15.2881C52.876 17.7323 54.7907 20.8625 53.8189 25.209C53.6826 25.7898 53.714 26.3974 53.9095 26.9609C54.105 27.5244 54.4565 28.0205 54.9229 28.3911C56.5846 29.9706 58.1658 31.625 59.7815 33.2449C59.4167 33.9854 58.8829 34.6293 58.2233 35.1241C56.9641 36.3174 55.6876 37.4934 54.4169 38.6751C50.7428 42.1339 47.0802 45.5407 43.3831 48.9476C43.2508 49.0744 41.7156 50.2101 41.7156 51.3169C41.7262 51.8953 41.9641 52.4463 42.3775 52.85C42.7909 53.2536 43.3465 53.4775 43.9235 53.4728C45.0218 53.4728 46.6835 51.7434 46.9479 51.5013C50.8636 47.835 54.8482 44.1803 58.7408 40.4794C60.0575 39.2285 61.5639 38.1736 62.5931 36.6114H62.9956L63.6511 37.1014L66.388 39.8395C66.39 40.1153 66.3365 40.3885 66.2308 40.6431C66.1251 40.8976 65.9693 41.1282 65.7728 41.3211C65.2553 41.8456 64.7551 42.3817 64.2376 42.9006L13.1334 94.1421C12.453 94.8863 11.7105 95.5709 10.914 96.1885C10.3908 96.5682 9.78414 96.816 9.14527 96.9111C8.5064 97.0062 7.85409 96.9458 7.24342 96.735C6.63276 96.5241 6.08167 96.169 5.63672 95.6996C5.19176 95.2303 4.86601 94.6605 4.68697 94.0383C4.46457 93.4293 4.40913 92.7717 4.52644 92.134C4.64375 91.4963 4.92951 90.9017 5.35394 90.4124C6.07385 89.5856 6.84182 88.8022 7.65386 88.0662C15.2934 80.9334 22.9426 73.8046 30.6013 66.6795C31.1763 66.1031 31.7915 65.5785 32.3607 65.002C32.3607 65.002 33.4302 63.9298 33.4302 63.1285C33.4302 62.5531 33.2038 62.0008 32.8001 61.5917C32.3964 61.1827 31.848 60.9498 31.274 60.9437C30.5553 60.9437 29.1753 62.137 28.9741 62.3042C20.6369 70.1402 12.2729 77.9531 3.88199 85.743C3.27244 86.2838 2.69639 86.8613 2.15706 87.4724C0.845464 89.0865 0.169672 91.1268 0.25762 93.2068C0.345569 95.2869 1.19115 97.2625 2.63429 98.7595C4.09256 100.249 6.05257 101.141 8.13128 101.259C10.21 101.377 12.258 100.714 13.8751 99.3994C14.7845 98.634 15.6484 97.8159 16.4625 96.9494L67.1182 46.1633L68.8776 44.4339C69.2456 44.0199 69.7456 43.7468 70.2921 43.6615C70.6785 44.1785 71.1831 44.595 71.7634 44.8759C72.3437 45.1568 72.9828 45.2938 73.627 45.2756C74.0389 45.2747 74.4456 45.367 74.817 45.5457C75.1883 45.7243 75.5147 45.9847 75.7717 46.3074C76.2086 46.7744 76.6571 47.2298 77.1286 47.6621C77.5323 47.9639 77.8576 48.3588 78.0768 48.8134C78.296 49.2679 78.4027 49.7688 78.3878 50.2735C78.3549 50.6937 78.4105 51.1163 78.5512 51.5135C78.6919 51.9108 78.9144 52.2739 79.2043 52.5793C81.3029 54.7526 83.4189 56.9085 85.598 59.0011C86.4433 59.8081 87.4035 59.7332 88.3522 59.0357C88.5697 58.8593 88.7734 58.6666 88.9617 58.4592C92.5898 54.8275 96.2294 51.2131 99.823 47.5526C101.341 46.0019 101.347 45.1199 99.8748 43.575ZM74.5469 39.9952C73.6672 40.8599 73.466 40.8541 72.523 39.9087C68.111 35.5123 63.7028 31.1023 59.2985 26.679L59.103 26.483C58.7751 26.2299 58.5214 25.8929 58.3686 25.5073C58.2158 25.1218 58.1696 24.7021 58.2348 24.2924C58.2348 24.206 58.2348 24.108 58.2348 24.0157C58.6718 19.0524 56.4236 15.3688 52.7322 12.3597C51.5248 11.3797 50.2196 10.5208 48.9489 9.62153C48.2129 9.09695 47.4597 8.6012 46.7122 8.09391L46.8904 7.66157C47.4999 7.81145 48.1094 7.93827 48.7074 8.11697C52.0365 9.12001 55.3599 10.1576 58.6948 11.1434C59.9329 11.5038 61.0999 12.0751 62.1446 12.8324C64.5337 14.532 66.7781 16.4274 68.8547 18.499C72.8795 22.5112 76.9044 26.5329 80.9292 30.5643C81.2512 30.8871 81.5732 31.2157 81.8664 31.5674C81.9905 31.7067 82.0596 31.8867 82.0606 32.0735C82.0617 32.2604 81.9947 32.4411 81.8722 32.5819C81.7665 32.7312 81.6492 32.8719 81.5214 33.0027C79.21 35.3316 76.8929 37.6778 74.5469 39.9952ZM81.1535 45.1833C80.8633 45.0409 80.5862 44.8731 80.3255 44.6818C77.9681 42.4106 78.0601 42.6642 80.2047 40.4967C81.2282 39.4649 82.2689 38.4503 83.3154 37.4357C83.4053 37.3315 83.5171 37.2485 83.6427 37.1927C83.7684 37.1369 83.9048 37.1097 84.0422 37.113C84.1796 37.1163 84.3146 37.1501 84.4375 37.2118C84.5603 37.2736 84.668 37.3619 84.7528 37.4703C85.521 38.073 86.1588 38.8262 86.6273 39.6839C84.8964 41.6139 83.0694 43.4552 81.1535 45.2006V45.1833ZM86.9435 54.0896C86.642 53.9254 86.357 53.7323 86.0925 53.5132C81.9584 49.2243 81.9239 50.8038 85.9315 46.6302C87.4495 45.0507 89.0192 43.5174 90.5889 42.0186C91.2616 41.3672 91.5778 41.3499 92.2103 41.984C93.3603 43.1369 94.6712 44.1457 95.5337 45.5407C92.8973 48.6162 90.0251 51.4803 86.9435 54.1069V54.0896Z" fill="#73A9AB"/>
<path d="M39.8987 57.2544C39.8987 56.8189 39.7699 56.3931 39.5285 56.031C39.2872 55.6689 38.9442 55.3866 38.5428 55.2199C38.1415 55.0533 37.6998 55.0097 37.2738 55.0946C36.8477 55.1796 36.4563 55.3893 36.1492 55.6973C35.842 56.0053 35.6328 56.3976 35.5481 56.8248C35.4633 57.252 35.5068 57.6947 35.673 58.0971C35.8393 58.4995 36.1208 58.8434 36.482 59.0854C36.8432 59.3273 37.2679 59.4565 37.7023 59.4565C38.2848 59.4565 38.8435 59.2245 39.2554 58.8115C39.6673 58.3985 39.8987 57.8384 39.8987 57.2544Z" fill="#73A9AB"/>
<path d="M150.981 104.082C150.791 101.342 150.447 98.6153 149.952 95.9139C149.854 94.8243 149.837 93.7175 149.636 92.6453C148.934 88.9618 148.256 85.2724 147.416 81.6234C145.867 75.0139 145.537 68.1758 146.445 61.4473C146.577 60.4501 146.709 59.4528 146.801 58.4497C146.872 57.9923 146.788 57.5242 146.563 57.12C146.338 56.7157 145.985 56.3985 145.559 56.2188C145.065 55.9825 144.547 55.798 144.036 55.6078C139.34 53.8592 134.571 52.32 129.73 50.9903C128.327 50.5984 126.913 50.2179 125.481 49.9354C124.302 49.6991 123.308 50.0392 122.819 51.2843C122.819 53.1521 123.704 54.1666 125.55 54.426C125.912 54.4944 126.267 54.5908 126.614 54.7143C128.816 55.3541 129.017 55.6943 128.413 57.7983C128.31 58.15 128.189 58.4959 128.074 58.8475C126.55 63.6607 125.596 68.6372 125.234 73.674C125.185 74.2232 125.196 74.7761 125.268 75.3227C125.498 77.0521 125.74 78.7815 126.027 80.5109C126.723 84.6729 127.465 88.8234 128.149 92.9912C128.373 94.3689 127.988 94.882 126.568 94.9454C124.187 95.0434 121.859 95.5565 119.467 95.6083C116.908 95.6989 114.357 95.9337 111.825 96.3116C107.8 96.8881 103.776 96.7209 99.7507 96.5076C96.4733 96.3347 93.2017 95.9312 89.9301 95.5449C85.6337 95.1565 81.4442 93.9843 77.568 92.0862C70.7545 88.6274 64.5792 84.2002 58.5017 79.6173C58.2849 79.4423 58.083 79.2494 57.898 79.0409C57.323 78.3952 57.3518 77.7554 58.0187 77.1328C58.9192 76.3248 60.0666 75.8472 61.2731 75.7781C63.0947 75.5638 64.936 75.5832 66.7527 75.8358C71.4502 76.5563 76.1478 77.323 80.8397 78.084C83.8202 78.6224 86.877 78.5715 89.8381 77.9341C90.9075 77.692 91.9885 77.4729 93.0292 77.127C93.5822 76.9014 94.1916 76.854 94.7727 76.9914C95.3539 77.1288 95.8779 77.4441 96.2721 77.8937C97.0311 78.6892 97.836 79.4444 98.6238 80.1996C98.9057 80.5102 99.2551 80.7517 99.6448 80.9056C100.035 81.0595 100.454 81.1217 100.872 81.0873C101.285 81.0688 101.678 80.902 101.979 80.6173C102.28 80.3327 102.468 79.9491 102.511 79.5366C102.558 79.2156 102.538 78.8884 102.454 78.5751C102.37 78.2618 102.223 77.9691 102.022 77.715C101.619 77.2193 101.165 76.7581 100.734 76.2854C99.2102 74.6137 99.2217 74.2851 100.855 72.7171C100.987 72.5903 101.125 72.4692 101.251 72.3367C101.583 71.9512 102.022 71.6751 102.513 71.5445C103.003 71.4138 103.521 71.4348 104 71.6045C105.15 71.9677 106.3 72.2502 107.45 72.5845C108.143 72.8317 108.891 72.8836 109.612 72.7344C109.93 72.6789 110.227 72.5386 110.473 72.3281C110.718 72.1176 110.903 71.8448 111.007 71.5382C111.111 71.2316 111.131 70.9025 111.065 70.5856C110.998 70.2686 110.848 69.9754 110.629 69.7368C110.262 69.332 109.833 68.9877 109.359 68.7165C108.462 68.1746 106.955 68.3245 106.765 67.0275C106.604 65.9091 107.691 65.0963 108.243 64.1452C109.393 62.1794 110.698 60.2656 111.768 58.2422C113.142 55.6308 112.607 54.6739 109.721 54.1436C108.634 54.5068 108.318 55.5328 107.835 56.386C106.06 59.7026 103.989 62.8514 101.648 65.7938C96.6056 71.8351 90.3096 74.8788 82.3461 73.9623C81.7711 73.9046 81.2594 73.8239 80.7189 73.7374C77.2058 73.161 73.6927 72.5326 70.1738 72.0081C67.6573 71.5355 65.104 71.2866 62.5438 71.2644C58.22 71.3567 54.8104 73.1033 52.4184 76.7985C51.717 77.888 51.3375 78.8506 52.0735 80.09C52.3839 80.6088 52.3322 81.3294 52.5104 81.9405C52.7289 82.6841 53.2464 83.4335 54.0054 83.3297C56.0753 83.0415 56.7883 83.9062 56.5985 85.8604C56.6317 86.2261 56.7878 86.5696 57.0413 86.8346C57.2764 87.1775 57.6145 87.4363 58.0065 87.5731C58.3984 87.71 58.8237 87.7178 59.2204 87.5955C59.5696 87.4839 59.8993 87.3186 60.1979 87.1056C60.6579 86.7885 61.0316 86.9672 61.4456 87.2036C61.8842 87.4362 62.2525 87.7824 62.5124 88.2062C62.7723 88.63 62.9142 89.1158 62.9233 89.6132C63.1073 91.5155 64.194 92.2591 65.9419 91.5385C66.3442 91.3521 66.7903 91.2819 67.2302 91.3359C67.67 91.3898 68.0861 91.5658 68.4316 91.8441C71.3668 93.705 74.4273 95.3596 77.591 96.7958C80.7482 98.2552 84.1326 99.1581 87.5957 99.4648C87.2047 100.283 86.4457 100.318 85.7155 100.26C83.7088 100.099 81.6906 100.007 79.7012 99.6839C74.0152 98.7487 68.4069 97.3883 62.9233 95.6141C61.8251 95.274 61.0604 94.9281 60.7901 93.5158C60.4394 91.6538 58.7087 91.2099 57.231 92.409C56.9597 92.6995 56.6145 92.9105 56.2326 93.0192C55.8507 93.1278 55.4465 93.1301 55.0633 93.0258C53.2637 92.628 52.5737 93.0719 51.9987 94.8878C51.4011 96.7201 50.9002 98.5827 50.498 100.468C49.9518 103.154 50.2853 103.696 52.7979 105.005C53.1257 105.172 53.4534 105.339 53.7869 105.495C64.1481 110.483 75.51 113.028 87.0034 112.937C94.157 112.921 101.297 112.302 108.347 111.086C110.779 110.654 113.211 110.233 115.637 109.743C117.282 109.415 117.224 109.651 117.489 110.896C117.822 112.424 118.409 112.844 119.95 112.977C120.588 113.029 121.232 112.977 121.87 112.977C126.087 112.977 130.303 112.977 134.52 112.977C136.446 112.977 138.366 112.977 140.27 112.977C141.191 113.041 142.106 112.771 142.845 112.216C145.253 110.241 147.658 108.26 150.061 106.273C150.393 106.021 150.653 105.686 150.814 105.301C150.976 104.917 151.033 104.496 150.981 104.082ZM129.621 72.9996C130.077 68.7023 130.93 64.4568 132.168 60.3175C132.374 59.6129 132.617 58.9201 132.898 58.2422C133.358 57.1988 134.014 56.8126 135.106 57.1354C137.032 57.7119 138.93 58.3863 140.816 59.0896C141.208 59.2371 141.543 59.5073 141.771 59.8602C141.999 60.2131 142.107 60.6301 142.081 61.0496C142.084 61.5064 142.055 61.9629 141.994 62.4158C141.486 66.6991 141.486 71.0279 141.994 75.3112C142.472 80.09 143.857 84.6671 144.639 89.371C144.703 89.7342 144.806 90.0858 144.864 90.449C145.352 93.6484 145.72 93.6484 142.04 94.2248C140.675 94.372 139.303 94.4471 137.929 94.4496V94.392C136.917 94.392 135.911 94.4324 134.905 94.392C133.324 94.3113 132.812 93.879 132.461 92.3225C132.26 91.429 132.185 90.5067 132.024 89.6016C131.288 85.3531 130.558 81.1046 129.799 76.8561C129.549 75.5866 129.489 74.2868 129.621 72.9996ZM146.295 103.448C145.72 104.849 144.064 105.547 142.903 106.578C142.765 106.699 142.604 106.797 142.477 106.93C141.874 107.55 141.14 108.026 140.329 108.325C139.519 108.625 138.652 108.739 137.791 108.659C133.491 108.55 129.167 108.659 124.883 108.625C124.153 108.625 123.417 108.625 122.687 108.55C122.458 108.546 122.239 108.454 122.075 108.293C121.912 108.132 121.816 107.915 121.807 107.685C121.807 107.501 121.772 107.316 121.744 107.109C121.284 104.555 120.594 104.111 117.966 104.693C115.821 105.166 113.677 105.656 111.521 106.077C103.167 107.749 94.6711 108.606 86.1525 108.636C76.0454 108.565 66.0676 106.351 56.8745 102.14C56.4548 101.955 56.0466 101.753 55.6383 101.563C55.3813 101.46 55.1701 101.267 55.0433 101.021C54.9166 100.774 54.8828 100.49 54.9483 100.22C54.9483 100.128 54.9886 100.041 55.0058 99.9491C55.4141 97.9488 55.6211 97.7989 57.576 98.4503C62.7782 100.217 68.0673 101.716 73.4224 102.941C78.81 104.151 84.2378 104.895 89.7691 104.307C92.3105 104.036 94.8462 103.61 97.3703 103.2C100.82 102.624 104.23 102.047 107.657 101.471C108.007 101.377 108.348 101.249 108.674 101.09C109.669 101.01 110.67 100.941 111.659 100.843C116.362 100.381 121.059 99.8799 125.769 99.4591C128.845 99.1824 131.927 99.021 135.008 98.8077C137.452 98.8884 139.89 99.0037 142.293 98.3984H145.899C146.175 100.047 146.985 101.846 146.295 103.448Z" fill="#73A9AB"/>
</svg>
