<svg width="97" height="87" viewBox="0 0 97 87" fill="none" xmlns="http://www.w3.org/2000/svg">
<path d="M96.9859 24.355C96.9859 22.5063 96.1774 21.1723 94.3335 20.5967C93.8148 20.2543 93.1983 20.091 92.5781 20.1317C91.8749 20.1317 91.1716 20.1317 90.4628 20.0985C89.1338 20.0432 89.0231 19.9269 88.9677 18.5155C88.94 17.8125 88.9677 17.1095 88.9677 16.4011C88.9677 13.1409 88.8625 9.88069 88.9677 6.62605C89.0137 5.74395 88.8729 4.86209 88.5546 4.03811C88.2362 3.21412 87.7475 2.46658 87.1203 1.84436C86.4931 1.22213 85.7416 0.739225 84.9149 0.427219C84.0882 0.115214 83.2049 -0.0188696 82.3228 0.0337359C81.531 0.0669465 80.7336 0.0337359 79.9417 0.0337359H40.8088C30.7583 0.0337359 20.7135 0.111227 10.663 0.000525236C6.06144 -0.0492907 1.80317 3.4489 2.00805 8.61315C2.1631 12.7534 2.00805 16.9158 2.05235 21.0395C2.04819 21.9186 2.13354 22.7958 2.30707 23.6576C2.77775 25.8052 3.3315 27.9362 3.88524 30.0783C4.05136 30.7702 4.19533 31.5839 4.84321 31.8938C6.08359 32.4861 6.02268 33.5156 6.02822 34.5839C6.02822 35.8182 5.995 37.0525 6.06698 38.2813C6.06037 38.5679 6.11075 38.8528 6.21521 39.1197C6.31967 39.3866 6.47612 39.6301 6.67548 39.8361C6.87485 40.0421 7.11315 40.2064 7.37657 40.3196C7.63998 40.4328 7.92326 40.4925 8.20996 40.4954C8.81908 40.5618 9.43927 40.5341 10.0539 40.5397C10.9399 40.5397 11.8204 40.5397 12.7008 40.5839C13.6643 40.6393 13.908 40.8828 13.9357 41.9068C13.98 43.4899 13.9357 45.0784 13.9744 46.6615C13.9744 47.5305 13.8083 48.4383 14.3565 49.2298C14.4532 49.6151 14.6721 49.9588 14.9806 50.2092C15.2891 50.4597 15.6704 50.6035 16.0676 50.6191C16.3762 50.6289 16.6827 50.5652 16.9619 50.4334C17.2411 50.3015 17.485 50.1053 17.6734 49.8608C17.8694 49.6256 18.0165 49.3537 18.1058 49.0609C18.1952 48.7681 18.2252 48.4605 18.1939 48.156C18.1939 45.691 18.1939 43.2279 18.1939 40.7666C18.7477 40.7112 19.2405 40.6171 19.7666 40.6005C20.9128 40.6005 22.0591 40.6005 23.2053 40.6005C25.6196 40.5231 26.1789 39.9806 26.2509 37.6393C26.2896 36.5821 26.2952 35.5193 26.2509 34.4621C26.2066 33.4049 26.3949 32.5746 27.4082 32.0156C28.0727 31.6558 28.2444 30.9086 28.4271 30.2222C28.7372 29.0266 28.9808 27.8255 29.3186 26.6299C29.8724 24.4491 29.8724 24.4159 32.1372 24.4159C39.4576 24.4159 46.7763 24.4159 54.093 24.4159C54.6468 24.4159 55.1562 24.4159 55.6823 24.4768C55.9053 24.4836 56.1174 24.5749 56.2757 24.7321C56.434 24.8893 56.5267 25.1007 56.535 25.3236C56.5904 26.0211 56.607 26.7296 56.607 27.4325C56.607 35.3662 56.607 43.2998 56.607 51.2335C56.607 54.859 56.8839 54.6154 53.124 54.621H16.361C15.5667 54.596 14.7716 54.6182 13.98 54.6874C13.4899 54.7082 13.026 54.914 12.6817 55.2633C12.3375 55.6125 12.1385 56.0792 12.1249 56.5693C12.1061 56.8333 12.1409 57.0983 12.2271 57.3485C12.3133 57.5987 12.4491 57.8289 12.6265 58.0253C12.8039 58.2217 13.0191 58.3803 13.2593 58.4915C13.4995 58.6028 13.7597 58.6644 14.0243 58.6727C14.9822 58.7612 15.9624 58.728 16.9314 58.728H81.2153C82.0958 58.728 82.9818 58.728 83.8567 58.7834C84.0796 58.7743 84.2971 58.8535 84.4619 59.0038C84.6267 59.1541 84.7256 59.3633 84.7371 59.586C84.798 60.1948 84.8202 60.8148 84.8202 61.4292C84.8202 64.6008 84.8479 67.7779 84.8202 70.9495C84.787 75.1507 85.3075 74.7466 80.9772 74.7466C57.2549 74.7466 33.5326 74.7466 9.81028 74.7466C9.10703 74.7466 8.39824 74.7466 7.69498 74.7466C6.37708 74.6857 6.11682 74.4643 6.08913 73.2079C6.0393 71.2706 6.08913 69.3333 6.05591 67.3905C6.0736 66.6849 6.04956 65.9788 5.98392 65.2761C5.96104 64.7861 5.74937 64.324 5.39324 63.9866C5.03712 63.6492 4.56418 63.4627 4.07351 63.4661C3.5835 63.4388 3.10255 63.6061 2.7354 63.9317C2.36825 64.2572 2.14464 64.7145 2.11326 65.2041C2.04762 65.818 2.02357 66.4357 2.04128 67.0528C2.04128 69.0787 2.04128 71.1045 2.04128 73.1414C2.04128 73.9828 1.89177 74.6913 1.07223 75.1451C0.755288 75.3026 0.488171 75.5447 0.300504 75.8447C0.112837 76.1446 0.0119537 76.4907 0.0090441 76.8444C0.0090441 79.5732 -0.0241804 82.3076 0.0367312 85.0419C0.0308404 85.4933 0.195966 85.9302 0.498961 86.2648C0.801956 86.5995 1.22039 86.8073 1.67027 86.8464C2.54356 86.9655 3.42491 87.0155 4.30608 86.9958H86.5866C87.2013 86.9958 87.8215 86.9958 88.4361 86.9681C90.3078 86.8187 90.939 86.2043 90.9889 84.3113C91.0498 82.0198 90.9889 79.7282 90.9889 77.4312C91.0333 76.9458 90.9367 76.4579 90.7109 76.026C90.485 75.594 90.1393 75.2363 89.7153 74.9957C89.447 74.8408 89.2306 74.6098 89.0936 74.3319C88.9566 74.0541 88.9051 73.7419 88.9456 73.4348C88.9456 73.0861 88.9456 72.7318 88.9456 72.3776C88.9456 61.979 88.9456 51.5767 88.9456 41.1707C88.9456 40.5563 88.9843 39.9419 89.0397 39.3275C89.0494 39.1507 89.1255 38.984 89.2528 38.8609C89.3801 38.7378 89.5492 38.6672 89.7263 38.6633C90.4296 38.6079 91.1384 38.6079 91.8416 38.5747C92.7055 38.5249 93.6191 38.7463 94.3833 38.1264C96.194 37.5009 96.9748 36.1669 96.9804 34.3237C97.0025 30.9971 97.008 27.6761 96.9859 24.355ZM22.1864 34.9049C22.131 36.1116 21.8708 36.3883 20.5695 36.4215C19.0799 36.4603 17.5904 36.4215 16.1008 36.4215C14.5226 36.4215 12.9445 36.4215 11.3718 36.4215C10.5523 36.4215 10.2643 36.0839 10.2034 35.3145C10.1647 34.8784 10.1536 34.4402 10.1702 34.0027C10.2145 32.7739 10.4582 32.4805 11.7595 32.4639C14.65 32.4197 17.5405 32.4197 20.4311 32.4639C21.8597 32.4639 22.1421 32.8071 22.192 34.1245C22.2036 34.3845 22.2017 34.645 22.1864 34.9049ZM82.0459 54.5878H63.263C63.0028 54.5878 62.7093 54.5878 62.4712 54.5878C60.8819 54.5213 60.749 54.3885 60.6826 52.6948C60.6826 51.9918 60.6826 51.2833 60.6826 50.5803C60.6826 42.0268 60.6826 33.4769 60.6826 24.9307C60.6826 24.1336 60.6826 23.3365 60.6327 22.5506C60.4832 21.0173 59.8353 20.3919 58.2738 20.2313C57.8329 20.2092 57.3912 20.2092 56.9503 20.2313C42.5789 20.2313 28.2074 20.2313 13.836 20.2313C13.1328 20.2151 12.4298 20.2688 11.7373 20.3919C11.3003 20.4803 10.9061 20.7138 10.6186 21.0544C10.3311 21.395 10.1672 21.8228 10.1536 22.2683C10.14 22.7589 10.3066 23.2374 10.6218 23.6137C10.937 23.99 11.3791 24.2379 11.8647 24.3107C12.5643 24.3975 13.2698 24.429 13.9744 24.4048C17.4132 24.4048 20.8519 24.4048 24.2906 24.438C25.3151 24.438 25.5199 24.7535 25.3261 25.7499C25.2763 26.01 25.1932 26.2646 25.1268 26.5192C24.6616 28.3126 24.573 28.4067 22.8454 28.4178C18.349 28.4399 13.8526 28.4399 9.35621 28.4178C7.80573 28.4178 7.73928 28.3292 7.32951 26.8901C6.55428 24.1723 5.92301 21.4491 6.04483 18.5874C6.17219 15.5929 6.07252 12.5929 6.07806 9.5984C6.05929 8.9811 6.0852 8.36325 6.15558 7.74968C6.27719 6.82231 6.71775 5.96611 7.40173 5.32786C8.08571 4.68961 8.9705 4.30908 9.90442 4.25149C10.6907 4.17953 11.4881 4.21274 12.28 4.21274H80.7779C81.5711 4.18765 82.3651 4.22095 83.1534 4.31237C83.5462 4.36038 83.9126 4.53488 84.1973 4.8095C84.482 5.08412 84.6696 5.44392 84.7316 5.83453C84.8138 6.44526 84.8435 7.06192 84.8202 7.67772C84.8202 22.4011 84.8202 37.1227 84.8202 51.8424C84.8257 54.6265 84.9032 54.5822 82.0459 54.5878ZM85.1026 82.8832C83.8677 82.9275 82.6329 82.8832 81.3981 82.8832H8.44254C7.47349 82.8832 6.50444 82.8832 5.53539 82.839C4.48328 82.7725 4.17872 82.4294 4.1455 81.3223C4.06244 79.0197 4.35038 78.8592 6.4546 78.8592H82.871C83.5743 78.8592 84.2831 78.8592 84.9863 78.8592C86.6918 78.9146 86.8801 79.1304 86.8746 80.9183C86.8524 82.6009 86.6697 82.8279 85.1026 82.8832ZM89.0175 24.3937C89.8039 24.3937 90.5957 24.3605 91.3765 24.3937C92.3123 24.4657 92.7221 24.7923 92.7387 25.6668C92.7904 28.1133 92.7904 30.5617 92.7387 33.0119C92.7387 33.9031 92.3289 34.2075 91.382 34.2795C90.5957 34.3348 89.8039 34.2795 89.0175 34.2795V24.3937Z" fill="#73A9AB"/>
<path d="M8.31518 57.8922C8.27958 57.3669 8.03799 56.8769 7.64293 56.5286C7.24788 56.1804 6.73128 56.0021 6.20542 56.0324C5.93882 56.0335 5.67521 56.0887 5.43064 56.1948C5.18607 56.3009 4.96564 56.4556 4.78276 56.6495C4.59988 56.8434 4.45837 57.0725 4.36684 57.3228C4.27531 57.5731 4.23568 57.8394 4.25034 58.1054C4.265 58.3715 4.33366 58.6319 4.45214 58.8706C4.57062 59.1093 4.73644 59.3215 4.93952 59.4941C5.1426 59.6668 5.3787 59.7964 5.63345 59.875C5.88819 59.9535 6.15627 59.9795 6.42138 59.9513C6.68201 59.9435 6.93845 59.8838 7.17561 59.7755C7.41278 59.6672 7.62587 59.5125 7.80234 59.3206C7.97881 59.1288 8.11509 58.9035 8.20317 58.6582C8.29124 58.4129 8.32932 58.1525 8.31518 57.8922Z" fill="#73A9AB"/>
<path d="M75.988 20.9454C75.6108 20.8295 75.2872 20.5831 75.0751 20.2505C74.8631 19.9178 74.7764 19.5206 74.8307 19.1299C74.8602 18.7794 74.8509 18.4267 74.803 18.0782C74.7751 17.5916 74.5688 17.1324 74.2235 16.7883C73.8782 16.4441 73.4182 16.2393 72.9313 16.2129C72.4415 16.153 71.9467 16.2733 71.5391 16.5514C71.1316 16.8294 70.8391 17.2462 70.7164 17.7239C70.5897 18.0519 70.5313 18.4022 70.5447 18.7535C70.7164 20.1317 69.919 20.6797 68.8226 21.2941C66.0871 22.8218 64.6806 25.2462 64.6474 27.2665C64.6474 31.8053 66.7128 34.7499 69.8747 35.9455C71.4069 36.5227 73.0782 36.6219 74.668 36.23C76.2578 35.838 77.6913 34.9735 78.7793 33.7504C79.8674 32.5273 80.5588 31.0031 80.7624 29.3791C80.966 27.7551 80.6721 26.1075 79.9196 24.6539C79.0895 22.9916 77.6963 21.6775 75.988 20.9454ZM76.7189 28.6945C76.599 29.7525 76.0667 30.7207 75.2375 31.389C74.4082 32.0573 73.3488 32.3719 72.289 32.2647C71.2742 32.1449 70.3464 31.6332 69.7039 30.8389C69.0614 30.0446 68.755 29.0307 68.8503 28.0137C68.8994 27.4874 69.0525 26.9761 69.3007 26.5094C69.5489 26.0426 69.8872 25.6297 70.2961 25.2946C70.705 24.9595 71.1764 24.7088 71.6829 24.557C72.1894 24.4052 72.721 24.3554 73.247 24.4104C74.2573 24.5645 75.1736 25.0905 75.8159 25.8852C76.4583 26.6799 76.7804 27.6858 76.7189 28.7056V28.6945Z" fill="#73A9AB"/>
<path d="M66.735 46.5452C66.206 46.5273 65.6914 46.7191 65.3035 47.0789C64.9155 47.4388 64.6856 47.9373 64.664 48.4659C64.6542 48.7495 64.7022 49.0321 64.8051 49.2966C64.908 49.561 65.0636 49.8018 65.2625 50.0042C65.4614 50.2066 65.6994 50.3665 65.9621 50.4741C66.2247 50.5818 66.5065 50.6348 66.7903 50.6302C67.3114 50.572 67.795 50.3309 68.1549 49.9498C68.5149 49.5687 68.7279 49.0723 68.7561 48.549C68.7367 48.0209 68.517 47.52 68.1416 47.1479C67.7663 46.7758 67.2634 46.5603 66.735 46.5452Z" fill="#73A9AB"/>
<path d="M74.8085 46.5452C74.5224 46.5423 74.2387 46.5985 73.9754 46.7104C73.712 46.8222 73.4746 46.9873 73.278 47.1952C73.0815 47.4031 72.9301 47.6493 72.8332 47.9185C72.7364 48.1876 72.6963 48.4739 72.7154 48.7593C72.7879 49.282 73.0447 49.7615 73.4397 50.1117C73.8346 50.4618 74.3416 50.6594 74.8694 50.6689C75.3945 50.6198 75.8828 50.3784 76.2406 49.9912C76.5983 49.6039 76.8003 49.0982 76.8075 48.5711C76.8097 48.3068 76.7597 48.0446 76.6604 47.7997C76.561 47.5547 76.4143 47.3317 76.2286 47.1435C76.0429 46.9553 75.8219 46.8056 75.5782 46.7029C75.3345 46.6003 75.073 46.5467 74.8085 46.5452Z" fill="#73A9AB"/>
</svg>
