<svg width="0" height="0" class="hidden">
  <symbol  xmlns="http://www.w3.org/2000/svg" viewBox="0 0 24 24" id="logo_inst">
    <path fill-rule="evenodd" clip-rule="evenodd" d="M12.35 5.722a6.32 6.32 0 00-6.232 7.538 6.323 6.323 0 008.615 4.629 6.322 6.322 0 003.91-5.844 6.317 6.317 0 00-6.292-6.323zm0 10.111a3.806 3.806 0 113.807-3.8 3.802 3.802 0 01-3.806 3.812v-.011z" ></path>
    <path d="M17.312 4.288a1.605 1.605 0 111.792 2.664 1.605 1.605 0 01-1.792-2.664z" ></path>
    <path fill-rule="evenodd" clip-rule="evenodd" d="M16.603 0H7.397A7.397 7.397 0 000 7.393v9.22A7.395 7.395 0 007.397 24h9.206A7.39 7.39 0 0024 16.613v-9.22A7.4 7.4 0 0016.603 0zm5.09 15.72a5.949 5.949 0 01-5.947 5.948H8.277a5.946 5.946 0 01-5.946-5.948V8.286a5.949 5.949 0 015.947-5.948h7.444a5.946 5.946 0 015.947 5.947l.024 7.435z" ></path>
  </symbol>
  <symbol  xmlns="http://www.w3.org/2000/svg" viewBox="0 0 39 22" id="logo_vk">
    <path d="M38.793 19.868a2.61 2.61 0 00-.132-.25c-.677-1.205-1.97-2.684-3.878-4.438l-.04-.04-.02-.02-.021-.02h-.02c-.867-.816-1.416-1.365-1.645-1.646-.42-.536-.515-1.078-.285-1.627.162-.415.772-1.29 1.827-2.63.556-.709.995-1.278 1.32-1.706 2.342-3.078 3.358-5.046 3.046-5.902l-.12-.2c-.082-.121-.292-.231-.63-.332-.339-.1-.772-.117-1.3-.05l-5.848.04c-.094-.033-.23-.03-.406.01l-.264.06-.102.05-.08.061a.9.9 0 00-.224.21 1.37 1.37 0 00-.203.352 32.625 32.625 0 01-2.173 4.517c-.5.83-.96 1.55-1.38 2.159-.42.608-.772 1.057-1.056 1.344a7.332 7.332 0 01-.772.693c-.23.174-.406.248-.528.22a15.237 15.237 0 01-.345-.08 1.341 1.341 0 01-.457-.491 2.18 2.18 0 01-.233-.783 8.493 8.493 0 01-.072-.813 16.66 16.66 0 01.01-.964c.015-.415.021-.696.021-.843 0-.51.01-1.061.03-1.657.02-.595.037-1.067.051-1.415.014-.348.02-.716.02-1.104 0-.388-.024-.693-.07-.914a3.1 3.1 0 00-.213-.642 1.088 1.088 0 00-.417-.482 2.362 2.362 0 00-.68-.271c-.717-.16-1.631-.248-2.741-.261-2.518-.027-4.136.134-4.854.482a2.732 2.732 0 00-.771.602c-.244.295-.278.455-.102.482.813.12 1.388.408 1.726.863l.122.241c.095.174.19.482.284.924.095.441.156.93.183 1.465.068.977.068 1.813 0 2.51a29.588 29.588 0 01-.193 1.626c-.06.388-.152.702-.274.943a3.974 3.974 0 01-.244.442.348.348 0 01-.101.1c-.176.067-.359.1-.548.1-.19 0-.42-.093-.69-.28a4.85 4.85 0 01-.843-.774c-.291-.328-.62-.786-.985-1.375a23.903 23.903 0 01-1.137-2.088l-.325-.582a49.97 49.97 0 01-.833-1.636 31.388 31.388 0 01-.934-2.078 1.325 1.325 0 00-.487-.643l-.102-.06a1.396 1.396 0 00-.324-.17 2.176 2.176 0 00-.467-.131l-5.564.04c-.569 0-.954.127-1.158.382l-.08.12C.02 1.575 0 1.682 0 1.829c0 .148.04.328.122.542a65.93 65.93 0 002.65 5.461c.954 1.753 1.783 3.166 2.487 4.236a50.005 50.005 0 002.152 3.031c.731.95 1.215 1.56 1.452 1.827.237.268.423.469.559.603l.507.481c.325.322.802.706 1.432 1.155.63.448 1.327.89 2.091 1.325.765.435 1.655.79 2.67 1.064a9.338 9.338 0 002.965.331h2.336c.473-.04.832-.187 1.076-.441l.08-.1c.055-.08.106-.205.153-.372s.07-.351.07-.552a6.539 6.539 0 01.133-1.556c.1-.461.216-.81.345-1.044a2.62 2.62 0 01.437-.592c.162-.16.277-.257.346-.29.067-.035.12-.057.161-.071.325-.107.708-.004 1.148.311a6.7 6.7 0 011.239 1.165c.386.462.85.98 1.39 1.555.542.576 1.016 1.004 1.422 1.285l.406.241a4.97 4.97 0 001.056.442c.433.134.812.168 1.137.1l5.198-.08c.514 0 .914-.084 1.198-.25.284-.168.453-.352.508-.553.054-.2.057-.428.01-.683a2.504 2.504 0 00-.143-.532z" ></path>
  </symbol>
</svg>